<svg width="1512" height="1093" viewBox="0 0 1512 1093" fill="none" xmlns="http://www.w3.org/2000/svg">
<g opacity="0.16" clip-path="url(#clip0_109_2957)">
<path d="M-15.3292 -129.193L-7.57034 7.08623C-7.57034 7.08623 -31.034 8.4221 -36.6867 -29.3188C-36.6867 -29.3188 -35.5797 -9.80743 -43.8203 -154.615L-7.38129 -156.69C-7.38129 -156.69 21.6826 -165.188 41.8396 -162.999C83.1633 -158.512 85.4754 -117.905 85.4754 -117.905L93.2095 0.346817L65.2548 1.93839L58.0607 -106.829C58.0607 -106.829 55.5958 -131.518 40.3793 -135.871C27.1048 -139.669 3.99537 -132.799 -3.84784 -129.847C-8.05106 -128.265 -15.3292 -129.193 -15.3292 -129.193Z" fill="#D9DADC"/>
<path d="M68.6668 44.314L76.4257 180.593C76.4257 180.593 99.8894 179.257 101.222 141.119C101.222 141.119 102.337 160.63 94.0884 15.8229L57.6494 17.8974C57.6494 17.8974 27.8087 12.7526 8.03034 17.2149C-32.517 26.3632 -30.2052 66.9707 -30.2052 66.9707L-24.4679 185.336L3.48685 183.744L-1.71052 74.8638C-1.71052 74.8638 -2.0638 50.0543 12.5603 44.0018C25.3179 38.7218 49.0578 42.9252 57.1854 44.9677C61.541 46.0623 68.6668 44.314 68.6668 44.314Z" fill="#DEDEDE"/>
<path d="M136.425 -137.833L144.184 -1.55373C144.184 -1.55373 120.72 -0.21785 115.068 -37.9588C115.068 -37.9588 116.175 -18.4474 107.934 -163.255L144.373 -165.329C144.373 -165.329 173.437 -173.828 193.594 -171.639C234.918 -167.152 237.23 -126.545 237.23 -126.545L244.964 -8.29312L217.009 -6.70155L209.815 -115.469C209.815 -115.469 207.35 -140.158 192.134 -144.511C178.859 -148.309 155.75 -141.439 147.906 -138.487C143.703 -136.905 136.425 -137.833 136.425 -137.833Z" fill="#D9DADC"/>
<path d="M220.421 35.6741L228.18 171.953C228.18 171.953 251.644 170.618 252.976 132.479C252.976 132.479 254.091 151.99 245.843 7.183L209.404 9.25743C209.404 9.25743 179.563 4.11261 159.785 8.57498C119.237 17.7233 121.549 58.3308 121.549 58.3308L127.286 176.696L155.241 175.104L150.044 66.2238C150.044 66.2238 149.69 41.4143 164.315 35.3618C177.072 30.0818 200.812 34.2852 208.94 36.3278C213.295 37.4223 220.421 35.6741 220.421 35.6741Z" fill="#DEDEDE"/>
<path d="M288.179 -146.473L295.938 -10.1937C295.938 -10.1937 272.474 -8.85779 266.822 -46.5987C266.822 -46.5987 267.929 -27.0873 259.688 -171.895L296.127 -173.969C296.127 -173.969 325.191 -182.468 345.348 -180.279C386.672 -175.792 388.984 -135.185 388.984 -135.185L396.718 -16.9331L368.763 -15.3415L361.569 -124.108C361.569 -124.108 359.104 -148.798 343.888 -153.151C330.613 -156.949 307.504 -150.078 299.661 -147.127C295.457 -145.545 288.179 -146.473 288.179 -146.473Z" fill="#D9DADC"/>
<path d="M372.175 27.0341L379.934 163.313C379.934 163.313 403.398 161.978 404.73 123.839C404.73 123.839 405.845 143.35 397.597 -1.45695L361.158 0.617493C361.158 0.617493 331.317 -4.52734 311.539 -0.0649719C270.991 9.0833 273.303 49.6908 273.303 49.6908L279.041 168.056L306.995 166.465L301.798 57.5839C301.798 57.5839 301.445 32.7744 316.069 26.7219C328.826 21.4419 352.566 25.6453 360.694 27.6878C365.049 28.7824 372.175 27.0341 372.175 27.0341Z" fill="#DEDEDE"/>
<path d="M439.934 -155.113L447.692 -18.8336C447.692 -18.8336 424.229 -17.4977 418.576 -55.2387C418.576 -55.2387 419.683 -35.7273 411.442 -180.535L447.881 -182.609C447.881 -182.609 476.945 -191.108 497.102 -188.919C538.426 -184.432 540.738 -143.825 540.738 -143.825L548.472 -25.573L520.518 -23.9815L513.323 -132.748C513.323 -132.748 510.859 -157.438 495.642 -161.791C482.368 -165.589 459.258 -158.718 451.415 -155.767C447.212 -154.185 439.934 -155.113 439.934 -155.113Z" fill="#D9DADC"/>
<path d="M523.93 18.3942L531.688 154.674C531.688 154.674 555.152 153.338 556.485 115.199C556.485 115.199 557.599 134.71 549.351 -10.0969L512.912 -8.02246C512.912 -8.02246 483.071 -13.1673 463.293 -8.70491C422.746 0.443359 425.058 41.0509 425.058 41.0509L430.795 159.416L458.75 157.825L453.552 48.9439C453.552 48.9439 453.199 24.1345 467.823 18.082C480.581 12.8019 504.321 17.0054 512.448 19.0479C516.804 20.1425 523.93 18.3942 523.93 18.3942Z" fill="#DEDEDE"/>
<path d="M591.688 -163.753L599.447 -27.4736C599.447 -27.4736 575.983 -26.1377 570.33 -63.8786C570.33 -63.8786 571.437 -44.3672 563.197 -189.175L599.636 -191.249C599.636 -191.249 628.7 -199.748 648.857 -197.559C690.18 -193.072 692.492 -152.465 692.492 -152.465L700.227 -34.213L672.272 -32.6214L665.078 -141.388C665.078 -141.388 662.613 -166.078 647.396 -170.431C634.122 -174.229 611.012 -167.358 603.169 -164.407C598.966 -162.825 591.688 -163.753 591.688 -163.753Z" fill="#D9DADC"/>
<path d="M675.684 9.75424L683.443 146.034C683.443 146.034 706.906 144.698 708.239 106.559C708.239 106.559 709.354 126.07 701.105 -18.7368L664.666 -16.6624C664.666 -16.6624 634.826 -21.8072 615.047 -17.3449C574.5 -8.19659 576.812 32.4109 576.812 32.4109L582.549 150.776L610.504 149.185L605.306 40.304C605.306 40.304 604.953 15.4945 619.577 9.44202C632.335 4.16199 656.075 8.36543 664.202 10.4079C668.558 11.5025 675.684 9.75424 675.684 9.75424Z" fill="#DEDEDE"/>
<path d="M743.442 -172.393L751.201 -36.1135C751.201 -36.1135 727.737 -34.7776 722.085 -72.5186C722.085 -72.5186 723.192 -53.0072 714.951 -197.814L751.39 -199.889C751.39 -199.889 780.454 -208.388 800.611 -206.199C841.935 -201.712 844.247 -161.105 844.247 -161.105L851.981 -42.8529L824.026 -41.2614L816.832 -150.028C816.832 -150.028 814.367 -174.718 799.151 -179.071C785.876 -182.869 762.767 -175.998 754.923 -173.047C750.72 -171.465 743.442 -172.393 743.442 -172.393Z" fill="#D9DADC"/>
<path d="M827.438 1.11429L835.197 137.394C835.197 137.394 858.661 136.058 859.993 97.9191C859.993 97.9191 861.108 117.43 852.86 -27.3768L816.421 -25.3024C816.421 -25.3024 786.58 -30.4472 766.802 -25.9848C726.254 -16.8365 728.566 23.771 728.566 23.771L734.303 142.136L762.258 140.545L757.061 31.6641C757.061 31.6641 756.707 6.85454 771.332 0.802063C784.089 -4.47797 807.829 -0.274521 815.957 1.76797C820.312 2.86256 827.438 1.11429 827.438 1.11429Z" fill="#DEDEDE"/>
<path d="M895.196 -181.033L902.955 -44.7535C902.955 -44.7535 879.491 -43.4176 873.839 -81.1585C873.839 -81.1585 874.946 -61.6471 866.705 -206.454L903.144 -208.529C903.144 -208.529 932.208 -217.028 952.365 -214.839C993.689 -210.352 996.001 -169.744 996.001 -169.744L1003.73 -51.4929L975.78 -49.9013L968.586 -158.668C968.586 -158.668 966.121 -183.358 950.905 -187.711C937.63 -191.509 914.521 -184.638 906.678 -181.686C902.474 -180.105 895.196 -181.033 895.196 -181.033Z" fill="#D9DADC"/>
<path d="M979.192 -7.52565L986.951 128.754C986.951 128.754 1010.41 127.418 1011.75 89.2792C1011.75 89.2792 1012.86 108.79 1004.61 -36.0167L968.175 -33.9423C968.175 -33.9423 938.334 -39.0871 918.556 -34.6248C878.008 -25.4765 880.32 15.131 880.32 15.131L886.058 133.496L914.012 131.905L908.815 23.0241C908.815 23.0241 908.462 -1.7854 923.086 -7.83788C935.843 -13.1179 959.583 -8.91447 967.711 -6.87198C972.066 -5.77739 979.192 -7.52565 979.192 -7.52565Z" fill="#DEDEDE"/>
<path d="M1046.95 -189.673L1054.71 -53.3934C1054.71 -53.3934 1031.25 -52.0575 1025.59 -89.7984C1025.59 -89.7984 1026.7 -70.2871 1018.46 -215.094L1054.9 -217.169C1054.9 -217.169 1083.96 -225.668 1104.12 -223.479C1145.44 -218.992 1147.76 -178.384 1147.76 -178.384L1155.49 -60.1328L1127.53 -58.5412L1120.34 -167.308C1120.34 -167.308 1117.88 -191.997 1102.66 -196.351C1089.38 -200.149 1066.28 -193.278 1058.43 -190.326C1054.23 -188.745 1046.95 -189.673 1046.95 -189.673Z" fill="#D9DADC"/>
<path d="M1130.95 -16.1656L1138.71 120.114C1138.71 120.114 1162.17 118.778 1163.5 80.6393C1163.5 80.6393 1164.62 100.15 1156.37 -44.6567L1119.93 -42.5822C1119.93 -42.5822 1090.09 -47.7271 1070.31 -43.2647C1029.76 -34.1164 1032.07 6.49109 1032.07 6.49109L1037.81 124.856L1065.77 123.265L1060.57 14.3842C1060.57 14.3842 1060.22 -10.4254 1074.84 -16.4778C1087.6 -21.7579 1111.34 -17.5544 1119.47 -15.5119C1123.82 -14.4173 1130.95 -16.1656 1130.95 -16.1656Z" fill="#DEDEDE"/>
<path d="M1198.7 -198.313L1206.46 -62.0334C1206.46 -62.0334 1183 -60.6975 1177.35 -98.4384C1177.35 -98.4384 1178.45 -78.927 1170.21 -223.734L1206.65 -225.809C1206.65 -225.809 1235.72 -234.308 1255.87 -232.119C1297.2 -227.632 1299.51 -187.024 1299.51 -187.024L1307.24 -68.7728L1279.29 -67.1812L1272.09 -175.948C1272.09 -175.948 1269.63 -200.637 1254.41 -204.991C1241.14 -208.789 1218.03 -201.918 1210.19 -198.966C1205.98 -197.385 1198.7 -198.313 1198.7 -198.313Z" fill="#D9DADC"/>
<path d="M1282.7 -24.8055L1290.46 111.474C1290.46 111.474 1313.92 110.138 1315.26 71.9993C1315.26 71.9993 1316.37 91.5103 1308.12 -53.2966L1271.68 -51.2222C1271.68 -51.2222 1241.84 -56.367 1222.06 -51.9046C1181.52 -42.7564 1183.83 -2.14885 1183.83 -2.14885L1189.57 116.216L1217.52 114.625L1212.32 5.74422C1212.32 5.74422 1211.97 -19.0653 1226.59 -25.1178C1239.35 -30.3978 1263.09 -26.1944 1271.22 -24.1519C1275.57 -23.0573 1282.7 -24.8055 1282.7 -24.8055Z" fill="#DEDEDE"/>
<path d="M1350.46 -206.953L1358.22 -70.6733C1358.22 -70.6733 1334.75 -69.3374 1329.1 -107.078C1329.1 -107.078 1330.21 -87.567 1321.97 -232.374L1358.41 -234.449C1358.41 -234.449 1387.47 -242.948 1407.63 -240.759C1448.95 -236.272 1451.26 -195.664 1451.26 -195.664L1459 -77.4127L1431.04 -75.8211L1423.85 -184.588C1423.85 -184.588 1421.38 -209.277 1406.17 -213.631C1392.89 -217.429 1369.78 -210.558 1361.94 -207.606C1357.74 -206.024 1350.46 -206.953 1350.46 -206.953Z" fill="#D9DADC"/>
<path d="M1434.45 -33.4455L1442.21 102.834C1442.21 102.834 1465.68 101.498 1467.01 63.3593C1467.01 63.3593 1468.12 82.8703 1459.88 -61.9366L1423.44 -59.8621C1423.44 -59.8621 1393.6 -65.007 1373.82 -60.5446C1333.27 -51.3963 1335.58 -10.7888 1335.58 -10.7888L1341.32 107.576L1369.28 105.985L1364.08 -2.89574C1364.08 -2.89574 1363.72 -27.7052 1378.35 -33.7577C1391.11 -39.0378 1414.85 -34.8343 1422.97 -32.7918C1427.33 -31.6972 1434.45 -33.4455 1434.45 -33.4455Z" fill="#DEDEDE"/>
<path d="M5.70221 240.209L13.4611 376.488C13.4611 376.488 -10.0026 377.824 -15.6553 340.083C-15.6553 340.083 -14.5483 359.594 -22.7889 214.787L13.6502 212.712C13.6502 212.712 42.7141 204.214 62.8711 206.402C104.195 210.89 106.507 251.497 106.507 251.497L114.241 369.749L86.2863 371.34L79.0921 262.573C79.0921 262.573 76.6273 237.884 61.4107 233.53C48.1362 229.732 25.0268 236.603 17.1836 239.555C12.9804 241.137 5.70221 240.209 5.70221 240.209Z" fill="#D9DADC"/>
<path d="M89.6982 413.716L97.4572 549.995C97.4572 549.995 120.921 548.659 122.253 510.521C122.253 510.521 123.368 530.032 115.12 385.225L78.6808 387.299C78.6808 387.299 48.8401 382.154 29.0618 386.617C-11.4856 395.765 -9.17378 436.372 -9.17378 436.372L-3.43641 554.738L24.5183 553.146L19.3209 444.266C19.3209 444.266 18.9676 419.456 33.5917 413.404C46.3494 408.124 70.0893 412.327 78.2168 414.37C82.5724 415.464 89.6982 413.716 89.6982 413.716Z" fill="#DEDEDE"/>
<path d="M157.456 231.569L165.215 367.848C165.215 367.848 141.752 369.184 136.099 331.443C136.099 331.443 137.206 350.954 128.965 206.147L165.404 204.072C165.404 204.072 194.468 195.574 214.625 197.763C255.949 202.25 258.261 242.857 258.261 242.857L265.995 361.109L238.041 362.7L230.846 253.933C230.846 253.933 228.382 229.244 213.165 224.89C199.89 221.093 176.781 227.963 168.938 230.915C164.735 232.497 157.456 231.569 157.456 231.569Z" fill="#D9DADC"/>
<path d="M241.452 405.076L249.211 541.355C249.211 541.355 272.675 540.019 274.007 501.881C274.007 501.881 275.122 521.392 266.874 376.585L230.435 378.659C230.435 378.659 200.594 373.514 180.816 377.977C140.268 387.125 142.58 427.732 142.58 427.732L148.318 546.098L176.272 544.506L171.075 435.626C171.075 435.626 170.722 410.816 185.346 404.764C198.103 399.484 221.843 403.687 229.971 405.729C234.326 406.824 241.452 405.076 241.452 405.076Z" fill="#DEDEDE"/>
<path d="M309.211 222.929L316.97 359.208C316.97 359.208 293.506 360.544 287.853 322.803C287.853 322.803 288.96 342.314 280.72 197.507L317.159 195.432C317.159 195.432 346.223 186.934 366.38 189.123C407.703 193.61 410.015 234.217 410.015 234.217L417.749 352.469L389.795 354.06L382.601 245.293C382.601 245.293 380.136 220.604 364.919 216.25C351.645 212.453 328.535 219.323 320.692 222.275C316.489 223.857 309.211 222.929 309.211 222.929Z" fill="#D9DADC"/>
<path d="M393.207 396.436L400.966 532.715C400.966 532.715 424.429 531.379 425.762 493.241C425.762 493.241 426.877 512.752 418.628 367.945L382.189 370.019C382.189 370.019 352.349 364.874 332.57 369.337C292.023 378.485 294.335 419.093 294.335 419.093L300.072 537.458L328.027 535.866L322.829 426.986C322.829 426.986 322.476 402.176 337.1 396.124C349.858 390.844 373.598 395.047 381.725 397.09C386.081 398.184 393.207 396.436 393.207 396.436Z" fill="#DEDEDE"/>
<path d="M460.965 214.289L468.724 350.568C468.724 350.568 445.26 351.904 439.607 314.163C439.607 314.163 440.714 333.674 432.474 188.867L468.913 186.792C468.913 186.792 497.977 178.294 518.134 180.483C559.458 184.97 561.77 225.577 561.77 225.577L569.504 343.829L541.549 345.42L534.355 236.653C534.355 236.653 531.89 211.964 516.673 207.611C503.399 203.813 480.29 210.683 472.446 213.635C468.243 215.217 460.965 214.289 460.965 214.289Z" fill="#D9DADC"/>
<path d="M544.961 387.796L552.72 524.075C552.72 524.075 576.184 522.739 577.516 484.601C577.516 484.601 578.631 504.112 570.383 359.305L533.944 361.379C533.944 361.379 504.103 356.234 484.325 360.697C443.777 369.845 446.089 410.453 446.089 410.453L451.826 528.818L479.781 527.226L474.584 418.346C474.584 418.346 474.23 393.536 488.854 387.484C501.612 382.204 525.352 386.407 533.48 388.45C537.835 389.544 544.961 387.796 544.961 387.796Z" fill="#DEDEDE"/>
<path d="M612.719 205.649L620.478 341.928C620.478 341.928 597.014 343.264 591.362 305.523C591.362 305.523 592.469 325.035 584.228 180.227L620.667 178.152C620.667 178.152 649.731 169.654 669.888 171.843C711.212 176.33 713.524 216.937 713.524 216.937L721.258 335.189L693.303 336.78L686.109 228.013C686.109 228.013 683.644 203.324 668.428 198.971C655.153 195.173 632.044 202.043 624.201 204.995C619.997 206.577 612.719 205.649 612.719 205.649Z" fill="#D9DADC"/>
<path d="M696.715 379.156L704.474 515.435C704.474 515.435 727.938 514.099 729.27 475.961C729.27 475.961 730.385 495.472 722.137 350.665L685.698 352.739C685.698 352.739 655.857 347.595 636.079 352.057C595.531 361.205 597.843 401.813 597.843 401.813L603.581 520.178L631.535 518.586L626.338 409.706C626.338 409.706 625.985 384.896 640.609 378.844C653.366 373.564 677.106 377.767 685.234 379.81C689.589 380.904 696.715 379.156 696.715 379.156Z" fill="#DEDEDE"/>
<path d="M764.473 197.009L772.232 333.288C772.232 333.288 748.769 334.624 743.116 296.883C743.116 296.883 744.223 316.395 735.982 171.587L772.421 169.513C772.421 169.513 801.485 161.014 821.642 163.203C862.966 167.69 865.278 208.297 865.278 208.297L873.012 326.549L845.057 328.14L837.863 219.373C837.863 219.373 835.398 194.684 820.182 190.331C806.907 186.533 783.798 193.403 775.955 196.355C771.752 197.937 764.473 197.009 764.473 197.009Z" fill="#D9DADC"/>
<path d="M848.469 370.516L856.228 506.795C856.228 506.795 879.692 505.46 881.025 467.321C881.025 467.321 882.139 486.832 873.891 342.025L837.452 344.099C837.452 344.099 807.611 338.955 787.833 343.417C747.286 352.565 749.597 393.173 749.597 393.173L755.335 511.538L783.29 509.946L778.092 401.066C778.092 401.066 777.739 376.256 792.363 370.204C805.121 364.924 828.861 369.127 836.988 371.17C841.344 372.264 848.469 370.516 848.469 370.516Z" fill="#DEDEDE"/>
<path d="M916.228 188.369L923.987 324.648C923.987 324.648 900.523 325.984 894.87 288.243C894.87 288.243 895.977 307.755 887.737 162.947L924.176 160.873C924.176 160.873 953.24 152.374 973.397 154.563C1014.72 159.05 1017.03 199.657 1017.03 199.657L1024.77 317.909L996.812 319.5L989.618 210.734C989.618 210.734 987.153 186.044 971.936 181.691C958.662 177.893 935.552 184.764 927.709 187.715C923.506 189.297 916.228 188.369 916.228 188.369Z" fill="#D9DADC"/>
<path d="M1000.22 361.876L1007.98 498.155C1007.98 498.155 1031.45 496.82 1032.78 458.681C1032.78 458.681 1033.89 478.192 1025.65 333.385L989.206 335.459C989.206 335.459 959.366 330.315 939.587 334.777C899.04 343.925 901.352 384.533 901.352 384.533L907.089 502.898L935.044 501.307L929.846 392.426C929.846 392.426 929.493 367.616 944.117 361.564C956.875 356.284 980.615 360.487 988.742 362.53C993.098 363.624 1000.22 361.876 1000.22 361.876Z" fill="#DEDEDE"/>
<path d="M1067.98 179.729L1075.74 316.008C1075.74 316.008 1052.28 317.344 1046.62 279.603C1046.62 279.603 1047.73 299.115 1039.49 154.307L1075.93 152.233C1075.93 152.233 1104.99 143.734 1125.15 145.923C1166.47 150.41 1168.79 191.017 1168.79 191.017L1176.52 309.269L1148.57 310.861L1141.37 202.094C1141.37 202.094 1138.91 177.404 1123.69 173.051C1110.42 169.253 1087.31 176.124 1079.46 179.075C1075.26 180.657 1067.98 179.729 1067.98 179.729Z" fill="#D9DADC"/>
<path d="M1151.98 353.236L1159.74 489.516C1159.74 489.516 1183.2 488.18 1184.53 450.041C1184.53 450.041 1185.65 469.552 1177.4 324.745L1140.96 326.82C1140.96 326.82 1111.12 321.675 1091.34 326.137C1050.79 335.285 1053.11 375.893 1053.11 375.893L1058.84 494.258L1086.8 492.667L1081.6 383.786C1081.6 383.786 1081.25 358.976 1095.87 352.924C1108.63 347.644 1132.37 351.847 1140.5 353.89C1144.85 354.984 1151.98 353.236 1151.98 353.236Z" fill="#DEDEDE"/>
<path d="M1219.74 171.089L1227.49 307.368C1227.49 307.368 1204.03 308.704 1198.38 270.963C1198.38 270.963 1199.49 290.475 1191.25 145.667L1227.68 143.593C1227.68 143.593 1256.75 135.094 1276.91 137.283C1318.23 141.77 1320.54 182.377 1320.54 182.377L1328.27 300.629L1300.32 302.221L1293.13 193.454C1293.13 193.454 1290.66 168.764 1275.44 164.411C1262.17 160.613 1239.06 167.484 1231.22 170.435C1227.01 172.017 1219.74 171.089 1219.74 171.089Z" fill="#D9DADC"/>
<path d="M1303.73 344.596L1311.49 480.876C1311.49 480.876 1334.95 479.54 1336.29 441.401C1336.29 441.401 1337.4 460.912 1329.15 316.105L1292.71 318.18C1292.71 318.18 1262.87 313.035 1243.1 317.497C1202.55 326.645 1204.86 367.253 1204.86 367.253L1210.6 485.618L1238.55 484.027L1233.35 375.146C1233.35 375.146 1233 350.336 1247.63 344.284C1260.38 339.004 1284.12 343.207 1292.25 345.25C1296.61 346.345 1303.73 344.596 1303.73 344.596Z" fill="#DEDEDE"/>
<path d="M1371.49 162.449L1379.25 298.729C1379.25 298.729 1355.79 300.064 1350.13 262.323C1350.13 262.323 1351.24 281.835 1343 137.028L1379.44 134.953C1379.44 134.953 1408.5 126.454 1428.66 128.643C1469.98 133.13 1472.3 173.737 1472.3 173.737L1480.03 291.989L1452.07 293.581L1444.88 184.814C1444.88 184.814 1442.42 160.124 1427.2 155.771C1413.92 151.973 1390.82 158.844 1382.97 161.795C1378.77 163.377 1371.49 162.449 1371.49 162.449Z" fill="#D9DADC"/>
<path d="M1455.49 335.956L1463.25 472.236C1463.25 472.236 1486.71 470.9 1488.04 432.761C1488.04 432.761 1489.16 452.272 1480.91 307.465L1444.47 309.54C1444.47 309.54 1414.63 304.395 1394.85 308.857C1354.3 318.005 1356.61 358.613 1356.61 358.613L1362.35 476.978L1390.31 475.387L1385.11 366.506C1385.11 366.506 1384.76 341.697 1399.38 335.644C1412.14 330.364 1435.88 334.568 1444.01 336.61C1448.36 337.705 1455.49 335.956 1455.49 335.956Z" fill="#DEDEDE"/>
<path d="M26.7337 609.61L34.4926 745.89C34.4926 745.89 11.0289 747.226 5.37617 709.485C5.37617 709.485 6.4832 728.996 -1.75741 584.189L34.6816 582.114C34.6816 582.114 63.7455 573.616 83.9025 575.804C125.226 580.291 127.538 620.899 127.538 620.899L135.272 739.15L107.318 740.742L100.124 631.975C100.124 631.975 97.6587 607.286 82.4422 602.932C69.1677 599.134 46.0583 606.005 38.2151 608.957C34.0118 610.539 26.7337 609.61 26.7337 609.61Z" fill="#D9DADC"/>
<path d="M110.73 783.118L118.489 919.397C118.489 919.397 141.952 918.061 143.285 879.922C143.285 879.922 144.4 899.433 136.151 754.627L99.7123 756.701C99.7123 756.701 69.8716 751.556 50.0932 756.018C9.54588 765.167 11.8577 805.774 11.8577 805.774L17.595 924.14L45.5498 922.548L40.3524 813.667C40.3524 813.667 39.9991 788.858 54.6232 782.805C67.3808 777.525 91.1207 781.729 99.2483 783.771C103.604 784.866 110.73 783.118 110.73 783.118Z" fill="#DEDEDE"/>
<path d="M178.488 600.971L186.247 737.25C186.247 737.25 162.783 738.586 157.13 700.845C157.13 700.845 158.237 720.356 149.997 575.549L186.436 573.474C186.436 573.474 215.5 564.976 235.657 567.164C276.98 571.651 279.293 612.259 279.293 612.259L287.027 730.51L259.072 732.102L251.878 623.335C251.878 623.335 249.413 598.646 234.196 594.292C220.922 590.494 197.813 597.365 189.969 600.317C185.766 601.899 178.488 600.971 178.488 600.971Z" fill="#D9DADC"/>
<path d="M262.484 774.478L270.243 910.757C270.243 910.757 293.707 909.421 295.039 871.282C295.039 871.282 296.154 890.793 287.906 745.987L251.467 748.061C251.467 748.061 221.626 742.916 201.847 747.379C161.3 756.527 163.612 797.134 163.612 797.134L169.349 915.5L197.304 913.908L192.107 805.027C192.107 805.027 191.753 780.218 206.377 774.165C219.135 768.885 242.875 773.089 251.003 775.131C255.358 776.226 262.484 774.478 262.484 774.478Z" fill="#DEDEDE"/>
<path d="M330.242 592.331L338.001 728.61C338.001 728.61 314.537 729.946 308.885 692.205C308.885 692.205 309.992 711.716 301.751 566.909L338.19 564.834C338.19 564.834 367.254 556.336 387.411 558.524C428.735 563.011 431.047 603.619 431.047 603.619L438.781 721.87L410.826 723.462L403.632 614.695C403.632 614.695 401.167 590.006 385.951 585.652C372.676 581.854 349.567 588.725 341.724 591.677C337.52 593.259 330.242 592.331 330.242 592.331Z" fill="#D9DADC"/>
<path d="M414.238 765.838L421.997 902.117C421.997 902.117 445.461 900.781 446.793 862.643C446.793 862.643 447.908 882.153 439.66 737.347L403.221 739.421C403.221 739.421 373.38 734.276 353.602 738.739C313.054 747.887 315.366 788.494 315.366 788.494L321.104 906.86L349.058 905.268L343.861 796.387C343.861 796.387 343.508 771.578 358.132 765.526C370.889 760.245 394.629 764.449 402.757 766.491C407.112 767.586 414.238 765.838 414.238 765.838Z" fill="#DEDEDE"/>
<path d="M481.996 583.691L489.755 719.97C489.755 719.97 466.292 721.306 460.639 683.565C460.639 683.565 461.746 703.076 453.505 558.269L489.944 556.194C489.944 556.194 519.008 547.696 539.165 549.884C580.489 554.371 582.801 594.979 582.801 594.979L590.535 713.231L562.58 714.822L555.386 606.055C555.386 606.055 552.921 581.366 537.705 577.012C524.43 573.214 501.321 580.085 493.478 583.037C489.275 584.619 481.996 583.691 481.996 583.691Z" fill="#D9DADC"/>
<path d="M565.992 757.198L573.751 893.477C573.751 893.477 597.215 892.141 598.548 854.003C598.548 854.003 599.662 873.514 591.414 728.707L554.975 730.781C554.975 730.781 525.134 725.636 505.356 730.099C464.809 739.247 467.12 779.854 467.12 779.854L472.858 898.22L500.812 896.628L495.615 787.748C495.615 787.748 495.262 762.938 509.886 756.886C522.644 751.606 546.383 755.809 554.511 757.851C558.867 758.946 565.992 757.198 565.992 757.198Z" fill="#DEDEDE"/>
<path d="M633.751 575.051L641.51 711.33C641.51 711.33 618.046 712.666 612.393 674.925C612.393 674.925 613.5 694.436 605.26 549.629L641.699 547.554C641.699 547.554 670.763 539.056 690.92 541.244C732.243 545.732 734.555 586.339 734.555 586.339L742.289 704.591L714.335 706.182L707.141 597.415C707.141 597.415 704.676 572.726 689.459 568.372C676.185 564.574 653.075 571.445 645.232 574.397C641.029 575.979 633.751 575.051 633.751 575.051Z" fill="#D9DADC"/>
<path d="M717.747 748.558L725.506 884.837C725.506 884.837 748.969 883.501 750.302 845.363C750.302 845.363 751.417 864.874 743.168 720.067L706.729 722.141C706.729 722.141 676.889 716.996 657.11 721.459C616.563 730.607 618.875 771.215 618.875 771.215L624.612 889.58L652.567 887.988L647.369 779.108C647.369 779.108 647.016 754.298 661.64 748.246C674.398 742.966 698.138 747.169 706.265 749.211C710.621 750.306 717.747 748.558 717.747 748.558Z" fill="#DEDEDE"/>
<path d="M785.505 566.411L793.264 702.69C793.264 702.69 769.8 704.026 764.147 666.285C764.147 666.285 765.254 685.796 757.014 540.989L793.453 538.914C793.453 538.914 822.517 530.416 842.674 532.604C883.997 537.092 886.31 577.699 886.31 577.699L894.044 695.951L866.089 697.542L858.895 588.775C858.895 588.775 856.43 564.086 841.213 559.732C827.939 555.935 804.83 562.805 796.986 565.757C792.783 567.339 785.505 566.411 785.505 566.411Z" fill="#D9DADC"/>
<path d="M869.501 739.918L877.26 876.197C877.26 876.197 900.724 874.861 902.056 836.723C902.056 836.723 903.171 856.234 894.923 711.427L858.484 713.501C858.484 713.501 828.643 708.356 808.865 712.819C768.317 721.967 770.629 762.575 770.629 762.575L776.366 880.94L804.321 879.348L799.124 770.468C799.124 770.468 798.77 745.658 813.394 739.606C826.152 734.326 849.892 738.529 858.02 740.572C862.375 741.666 869.501 739.918 869.501 739.918Z" fill="#DEDEDE"/>
<path d="M937.259 557.771L945.018 694.05C945.018 694.05 921.554 695.386 915.902 657.645C915.902 657.645 917.009 677.156 908.768 532.349L945.207 530.274C945.207 530.274 974.271 521.776 994.428 523.965C1035.75 528.452 1038.06 569.059 1038.06 569.059L1045.8 687.311L1017.84 688.902L1010.65 580.135C1010.65 580.135 1008.18 555.446 992.968 551.093C979.693 547.295 956.584 554.165 948.741 557.117C944.537 558.699 937.259 557.771 937.259 557.771Z" fill="#D9DADC"/>
<path d="M1021.26 731.278L1029.01 867.557C1029.01 867.557 1052.48 866.221 1053.81 828.083C1053.81 828.083 1054.93 847.594 1046.68 702.787L1010.24 704.861C1010.24 704.861 980.397 699.716 960.619 704.179C920.071 713.327 922.383 753.935 922.383 753.935L928.121 872.3L956.075 870.708L950.878 761.828C950.878 761.828 950.525 737.018 965.149 730.966C977.906 725.686 1001.65 729.889 1009.77 731.932C1014.13 733.026 1021.26 731.278 1021.26 731.278Z" fill="#DEDEDE"/>
<path d="M1089.01 549.131L1096.77 685.41C1096.77 685.41 1073.31 686.746 1067.66 649.005C1067.66 649.005 1068.76 668.517 1060.52 523.709L1096.96 521.634C1096.96 521.634 1126.03 513.136 1146.18 515.325C1187.51 519.812 1189.82 560.419 1189.82 560.419L1197.55 678.671L1169.6 680.262L1162.4 571.495C1162.4 571.495 1159.94 546.806 1144.72 542.453C1131.45 538.655 1108.34 545.525 1100.49 548.477C1096.29 550.059 1089.01 549.131 1089.01 549.131Z" fill="#D9DADC"/>
<path d="M1173.01 722.638L1180.77 858.917C1180.77 858.917 1204.23 857.582 1205.56 819.443C1205.56 819.443 1206.68 838.954 1198.43 694.147L1161.99 696.221C1161.99 696.221 1132.15 691.076 1112.37 695.539C1071.83 704.687 1074.14 745.295 1074.14 745.295L1079.87 863.66L1107.83 862.068L1102.63 753.188C1102.63 753.188 1102.28 728.378 1116.9 722.326C1129.66 717.046 1153.4 721.249 1161.53 723.292C1165.88 724.386 1173.01 722.638 1173.01 722.638Z" fill="#DEDEDE"/>
<path d="M1240.77 540.491L1248.53 676.77C1248.53 676.77 1225.06 678.106 1219.41 640.365C1219.41 640.365 1220.52 659.877 1212.28 515.069L1248.72 512.994C1248.72 512.994 1277.78 504.496 1297.94 506.685C1339.26 511.172 1341.57 551.779 1341.57 551.779L1349.31 670.031L1321.35 671.622L1314.16 562.855C1314.16 562.855 1311.69 538.166 1296.48 533.813C1283.2 530.015 1260.09 536.885 1252.25 539.837C1248.05 541.419 1240.77 540.491 1240.77 540.491Z" fill="#D9DADC"/>
<path d="M1324.76 713.998L1332.52 850.277C1332.52 850.277 1355.99 848.942 1357.32 810.803C1357.32 810.803 1358.43 830.314 1350.19 685.507L1313.75 687.581C1313.75 687.581 1283.91 682.437 1264.13 686.899C1223.58 696.047 1225.89 736.655 1225.89 736.655L1231.63 855.02L1259.58 853.428L1254.39 744.548C1254.39 744.548 1254.03 719.738 1268.66 713.686C1281.41 708.406 1305.15 712.609 1313.28 714.652C1317.64 715.746 1324.76 713.998 1324.76 713.998Z" fill="#DEDEDE"/>
<path d="M1392.52 531.851L1400.28 668.13C1400.28 668.13 1376.82 669.466 1371.16 631.725C1371.16 631.725 1372.27 651.237 1364.03 506.429L1400.47 504.355C1400.47 504.355 1429.53 495.856 1449.69 498.045C1491.01 502.532 1493.33 543.139 1493.33 543.139L1501.06 661.391L1473.11 662.982L1465.91 554.216C1465.91 554.216 1463.45 529.526 1448.23 525.173C1434.96 521.375 1411.85 528.245 1404 531.197C1399.8 532.779 1392.52 531.851 1392.52 531.851Z" fill="#D9DADC"/>
<path d="M1476.52 705.358L1484.28 841.637C1484.28 841.637 1507.74 840.302 1509.07 802.163C1509.07 802.163 1510.19 821.674 1501.94 676.867L1465.5 678.941C1465.5 678.941 1435.66 673.797 1415.88 678.259C1375.33 687.407 1377.65 728.015 1377.65 728.015L1383.38 846.38L1411.34 844.788L1406.14 735.908C1406.14 735.908 1405.79 711.098 1420.41 705.046C1433.17 699.766 1456.91 703.969 1465.04 706.012C1469.39 707.106 1476.52 705.358 1476.52 705.358Z" fill="#DEDEDE"/>
<path d="M47.7651 979.012L55.524 1115.29C55.524 1115.29 32.0603 1116.63 26.4076 1078.89C26.4076 1078.89 27.5146 1098.4 19.274 953.591L55.7131 951.516C55.7131 951.516 84.777 943.017 104.934 945.206C146.258 949.693 148.57 990.301 148.57 990.301L156.304 1108.55L128.349 1110.14L121.155 1001.38C121.155 1001.38 118.69 976.688 103.474 972.334C90.1991 968.536 67.0897 975.407 59.2465 978.359C55.0433 979.941 47.7651 979.012 47.7651 979.012Z" fill="#D9DADC"/>
<path d="M131.761 1152.52L139.52 1288.8C139.52 1288.8 162.984 1287.46 164.316 1249.32C164.316 1249.32 165.431 1268.84 157.183 1124.03L120.744 1126.1C120.744 1126.1 90.903 1120.96 71.1247 1125.42C30.5773 1134.57 32.8891 1175.18 32.8891 1175.18L38.6265 1293.54L66.5812 1291.95L61.3838 1183.07C61.3838 1183.07 61.0305 1158.26 75.6546 1152.21C88.4123 1146.93 112.152 1151.13 120.28 1153.17C124.635 1154.27 131.761 1152.52 131.761 1152.52Z" fill="#DEDEDE"/>
<path d="M199.519 970.372L207.278 1106.65C207.278 1106.65 183.815 1107.99 178.162 1070.25C178.162 1070.25 179.269 1089.76 171.028 944.951L207.467 942.876C207.467 942.876 236.531 934.377 256.688 936.566C298.012 941.053 300.324 981.661 300.324 981.661L308.058 1099.91L280.103 1101.5L272.909 992.737C272.909 992.737 270.444 968.048 255.228 963.694C241.953 959.896 218.844 966.767 211.001 969.719C206.798 971.301 199.519 970.372 199.519 970.372Z" fill="#D9DADC"/>
<path d="M283.515 1143.88L291.274 1280.16C291.274 1280.16 314.738 1278.82 316.071 1240.68C316.071 1240.68 317.185 1260.2 308.937 1115.39L272.498 1117.46C272.498 1117.46 242.657 1112.32 222.879 1116.78C182.332 1125.93 184.643 1166.54 184.643 1166.54L190.381 1284.9L218.335 1283.31L213.138 1174.43C213.138 1174.43 212.785 1149.62 227.409 1143.57C240.167 1138.29 263.906 1142.49 272.034 1144.53C276.39 1145.63 283.515 1143.88 283.515 1143.88Z" fill="#DEDEDE"/>
<path d="M351.274 961.732L359.033 1098.01C359.033 1098.01 335.569 1099.35 329.916 1061.61C329.916 1061.61 331.023 1081.12 322.783 936.311L359.222 934.236C359.222 934.236 388.285 925.737 408.442 927.926C449.766 932.413 452.078 973.021 452.078 973.021L459.812 1091.27L431.858 1092.86L424.664 984.097C424.664 984.097 422.199 959.408 406.982 955.054C393.708 951.256 370.598 958.127 362.755 961.079C358.552 962.661 351.274 961.732 351.274 961.732Z" fill="#D9DADC"/>
<path d="M435.27 1135.24L443.029 1271.52C443.029 1271.52 466.492 1270.18 467.825 1232.04C467.825 1232.04 468.94 1251.56 460.691 1106.75L424.252 1108.82C424.252 1108.82 394.412 1103.68 374.633 1108.14C334.086 1117.29 336.398 1157.9 336.398 1157.9L342.135 1276.26L370.09 1274.67L364.892 1165.79C364.892 1165.79 364.539 1140.98 379.163 1134.93C391.921 1129.65 415.661 1133.85 423.788 1135.89C428.144 1136.99 435.27 1135.24 435.27 1135.24Z" fill="#DEDEDE"/>
<path d="M503.028 953.092L510.787 1089.37C510.787 1089.37 487.323 1090.71 481.67 1052.97C481.67 1052.97 482.777 1072.48 474.537 927.671L510.976 925.596C510.976 925.596 540.04 917.098 560.197 919.286C601.52 923.773 603.833 964.381 603.833 964.381L611.567 1082.63L583.612 1084.22L576.418 975.457C576.418 975.457 573.953 950.768 558.736 946.414C545.462 942.616 522.352 949.487 514.509 952.439C510.306 954.021 503.028 953.092 503.028 953.092Z" fill="#D9DADC"/>
<path d="M587.024 1126.6L594.783 1262.88C594.783 1262.88 618.247 1261.54 619.579 1223.4C619.579 1223.4 620.694 1242.92 612.445 1098.11L576.006 1100.18C576.006 1100.18 546.166 1095.04 526.387 1099.5C485.84 1108.65 488.152 1149.26 488.152 1149.26L493.889 1267.62L521.844 1266.03L516.647 1157.15C516.647 1157.15 516.293 1132.34 530.917 1126.29C543.675 1121.01 567.415 1125.21 575.542 1127.25C579.898 1128.35 587.024 1126.6 587.024 1126.6Z" fill="#DEDEDE"/>
<path d="M654.782 944.453L662.541 1080.73C662.541 1080.73 639.077 1082.07 633.425 1044.33C633.425 1044.33 634.532 1063.84 626.291 919.031L662.73 916.956C662.73 916.956 691.794 908.458 711.951 910.646C753.275 915.133 755.587 955.741 755.587 955.741L763.321 1073.99L735.366 1075.58L728.172 966.817C728.172 966.817 725.707 942.128 710.491 937.774C697.216 933.976 674.107 940.847 666.263 943.799C662.06 945.381 654.782 944.453 654.782 944.453Z" fill="#D9DADC"/>
<path d="M738.778 1117.96L746.537 1254.24C746.537 1254.24 770.001 1252.9 771.333 1214.76C771.333 1214.76 772.448 1234.28 764.2 1089.47L727.761 1091.54C727.761 1091.54 697.92 1086.4 678.142 1090.86C637.594 1100.01 639.906 1140.62 639.906 1140.62L645.643 1258.98L673.598 1257.39L668.401 1148.51C668.401 1148.51 668.048 1123.7 682.672 1117.65C695.429 1112.37 719.169 1116.57 727.297 1118.61C731.652 1119.71 738.778 1117.96 738.778 1117.96Z" fill="#DEDEDE"/>
<path d="M806.536 935.812L814.295 1072.09C814.295 1072.09 790.832 1073.43 785.179 1035.69C785.179 1035.69 786.286 1055.2 778.045 910.391L814.484 908.316C814.484 908.316 843.548 899.818 863.705 902.006C905.029 906.493 907.341 947.101 907.341 947.101L915.075 1065.35L887.12 1066.94L879.926 958.177C879.926 958.177 877.461 933.488 862.245 929.134C848.97 925.336 825.861 932.207 818.018 935.159C813.815 936.741 806.536 935.812 806.536 935.812Z" fill="#D9DADC"/>
<path d="M890.532 1109.32L898.291 1245.6C898.291 1245.6 921.755 1244.26 923.088 1206.12C923.088 1206.12 924.202 1225.64 915.954 1080.83L879.515 1082.9C879.515 1082.9 849.674 1077.76 829.896 1082.22C789.349 1091.37 791.66 1131.98 791.66 1131.98L797.398 1250.34L825.352 1248.75L820.155 1139.87C820.155 1139.87 819.802 1115.06 834.426 1109.01C847.184 1103.73 870.923 1107.93 879.051 1109.97C883.407 1111.07 890.532 1109.32 890.532 1109.32Z" fill="#DEDEDE"/>
<path d="M958.291 927.173L966.049 1063.45C966.049 1063.45 942.586 1064.79 936.933 1027.05C936.933 1027.05 938.04 1046.56 929.8 901.751L966.239 899.676C966.239 899.676 995.302 891.178 1015.46 893.366C1056.78 897.853 1059.1 938.461 1059.1 938.461L1066.83 1056.71L1038.87 1058.3L1031.68 949.537C1031.68 949.537 1029.22 924.848 1014 920.494C1000.72 916.696 977.615 923.567 969.772 926.519C965.569 928.101 958.291 927.173 958.291 927.173Z" fill="#D9DADC"/>
<path d="M1042.29 1100.68L1050.05 1236.96C1050.05 1236.96 1073.51 1235.62 1074.84 1197.48C1074.84 1197.48 1075.96 1217 1067.71 1072.19L1031.27 1074.26C1031.27 1074.26 1001.43 1069.12 981.65 1073.58C941.103 1082.73 943.415 1123.34 943.415 1123.34L949.152 1241.7L977.107 1240.11L971.909 1131.23C971.909 1131.23 971.556 1106.42 986.18 1100.37C998.938 1095.09 1022.68 1099.29 1030.81 1101.33C1035.16 1102.43 1042.29 1100.68 1042.29 1100.68Z" fill="#DEDEDE"/>
<path d="M1110.04 918.533L1117.8 1054.81C1117.8 1054.81 1094.34 1056.15 1088.69 1018.41C1088.69 1018.41 1089.79 1037.92 1081.55 893.111L1117.99 891.036C1117.99 891.036 1147.06 882.538 1167.21 884.726C1208.54 889.214 1210.85 929.821 1210.85 929.821L1218.58 1048.07L1190.63 1049.66L1183.43 940.897C1183.43 940.897 1180.97 916.208 1165.75 911.854C1152.48 908.056 1129.37 914.927 1121.53 917.879C1117.32 919.461 1110.04 918.533 1110.04 918.533Z" fill="#D9DADC"/>
<path d="M1194.04 1092.04L1201.8 1228.32C1201.8 1228.32 1225.26 1226.98 1226.6 1188.84C1226.6 1188.84 1227.71 1208.36 1219.46 1063.55L1183.02 1065.62C1183.02 1065.62 1153.18 1060.48 1133.4 1064.94C1092.86 1074.09 1095.17 1114.7 1095.17 1114.7L1100.91 1233.06L1128.86 1231.47L1123.66 1122.59C1123.66 1122.59 1123.31 1097.78 1137.93 1091.73C1150.69 1086.45 1174.43 1090.65 1182.56 1092.69C1186.92 1093.79 1194.04 1092.04 1194.04 1092.04Z" fill="#DEDEDE"/>
<path d="M1261.8 909.893L1269.56 1046.17C1269.56 1046.17 1246.09 1047.51 1240.44 1009.77C1240.44 1009.77 1241.55 1029.28 1233.31 884.471L1269.75 882.396C1269.75 882.396 1298.81 873.898 1318.97 876.086C1360.29 880.573 1362.6 921.181 1362.6 921.181L1370.34 1039.43L1342.38 1041.02L1335.19 932.257C1335.19 932.257 1332.72 907.568 1317.51 903.214C1304.23 899.416 1281.12 906.287 1273.28 909.239C1269.08 910.821 1261.8 909.893 1261.8 909.893Z" fill="#D9DADC"/>
<path d="M1345.8 1083.4L1353.55 1219.68C1353.55 1219.68 1377.02 1218.34 1378.35 1180.2C1378.35 1180.2 1379.46 1199.72 1371.22 1054.91L1334.78 1056.98C1334.78 1056.98 1304.94 1051.84 1285.16 1056.3C1244.61 1065.45 1246.92 1106.06 1246.92 1106.06L1252.66 1224.42L1280.62 1222.83L1275.42 1113.95C1275.42 1113.95 1275.06 1089.14 1289.69 1083.09C1302.45 1077.81 1326.19 1082.01 1334.31 1084.05C1338.67 1085.15 1345.8 1083.4 1345.8 1083.4Z" fill="#DEDEDE"/>
<path d="M1413.55 901.253L1421.31 1037.53C1421.31 1037.53 1397.85 1038.87 1392.2 1001.13C1392.2 1001.13 1393.3 1020.64 1385.06 875.831L1421.5 873.756C1421.5 873.756 1450.57 865.258 1470.72 867.447C1512.05 871.934 1514.36 912.541 1514.36 912.541L1522.09 1030.79L1494.14 1032.38L1486.94 923.617C1486.94 923.617 1484.48 898.928 1469.26 894.574C1455.99 890.776 1432.88 897.647 1425.03 900.599C1420.83 902.181 1413.55 901.253 1413.55 901.253Z" fill="#D9DADC"/>
<path d="M1497.55 1074.76L1505.31 1211.04C1505.31 1211.04 1528.77 1209.7 1530.1 1171.56C1530.1 1171.56 1531.22 1191.08 1522.97 1046.27L1486.53 1048.34C1486.53 1048.34 1456.69 1043.2 1436.91 1047.66C1396.37 1056.81 1398.68 1097.42 1398.68 1097.42L1404.41 1215.78L1432.37 1214.19L1427.17 1105.31C1427.17 1105.31 1426.82 1080.5 1441.44 1074.45C1454.2 1069.17 1477.94 1073.37 1486.07 1075.41C1490.42 1076.51 1497.55 1074.76 1497.55 1074.76Z" fill="#DEDEDE"/>
</g>
<defs>
<clipPath id="clip0_109_2957">
<rect width="1515" height="1093" fill="white" transform="translate(-2)"/>
</clipPath>
</defs>
</svg>
